<?xml version="1.0" encoding="UTF-8"?>
<svg version="1.1" xmlns="http://www.w3.org/2000/svg" width="500" height="500">
<path d="M0 0 C165 0 330 0 500 0 C500 165 500 330 500 500 C335 500 170 500 0 500 C0 335 0 170 0 0 Z " fill="#0D0D0D" transform="translate(0,0)"/>
<path d="M0 0 C3.027066 0.40805489 3.90247108 1.09813454 6.01106262 3.26075745 C6.64554825 3.89884842 7.28003387 4.53693939 7.93374634 5.19436646 C8.60467819 5.89424179 9.27561005 6.59411713 9.96687317 7.31520081 C10.67329453 8.03106857 11.37971588 8.74693634 12.10754395 9.48449707 C14.36829519 11.77985618 16.61135822 14.09160592 18.85359192 16.40504456 C21.08837637 18.69005431 23.32671438 20.97149068 25.56750488 23.25061035 C26.9597862 24.66894611 28.34808627 26.09120549 29.7315979 27.51809692 C33.58380257 31.46729728 37.54681142 35.18437831 41.75488281 38.75341797 C43.5369874 40.33889291 45.11793067 42.02278374 46.72859192 43.78004456 C49.21814949 46.52934183 49.21814949 46.52934183 51.98852539 46.69656372 C55.09901558 46.26516531 56.02062486 45.46710311 58.19465637 43.24073792 C58.8691835 42.56260544 59.54371063 41.88447296 60.23867798 41.18579102 C60.95335739 40.44216812 61.6680368 39.69854523 62.40437317 38.93238831 C63.15518661 38.17212845 63.90600006 37.41186859 64.67956543 36.62857056 C67.08295364 34.1905642 69.46869245 31.73612788 71.85359192 29.28004456 C74.23104991 26.85238747 76.61205358 24.42829401 78.9954834 22.00650024 C80.47677534 20.49912089 81.95409158 18.9878203 83.42666626 17.47192383 C87.41921465 13.38473115 91.51359567 9.51959297 95.86791992 5.81863403 C97.70204963 4.25818791 97.70204963 4.25818791 99.72859192 1.90504456 C101.54109192 0.34254456 101.54109192 0.34254456 103.9375 0.0625 C107.04233435 0.39645862 107.86040703 1.05499262 110.01106262 3.26075745 C110.64554825 3.89884842 111.28003387 4.53693939 111.93374634 5.19436646 C112.60467819 5.89424179 113.27561005 6.59411713 113.96687317 7.31520081 C114.67329453 8.03106857 115.37971588 8.74693634 116.10754395 9.48449707 C118.36829519 11.77985618 120.61135822 14.09160592 122.85359192 16.40504456 C125.08837637 18.69005431 127.32671438 20.97149068 129.56750488 23.25061035 C130.9597862 24.66894611 132.34808627 26.09120549 133.7315979 27.51809692 C137.51672435 31.39853008 141.42315762 35.02457246 145.52978516 38.56103516 C149.0716551 41.69823665 152.37269652 45.0721909 155.69734192 48.43629456 C156.44391052 49.18664978 157.19047913 49.937005 157.95967102 50.71009827 C161.11810304 53.8847096 164.27048471 57.06530371 167.42341614 60.24537659 C169.74178937 62.58194817 172.06324712 64.91542455 174.38484192 67.24879456 C175.43363525 68.3100354 175.43363525 68.3100354 176.50361633 69.39271545 C180.52563544 73.43443738 184.6559278 77.2808177 188.98017883 80.9981842 C189.85708549 81.75343352 190.72275006 82.52420269 191.54109192 83.34254456 C191.66609192 85.84254456 191.66609192 85.84254456 191.54109192 88.34254456 C189.16832638 90.71531009 183.5940292 89.7658651 180.41609192 89.84254456 C179.00843567 89.92375549 179.00843567 89.92375549 177.57234192 90.00660706 C170.70276686 90.14130461 170.70276686 90.14130461 167.58113098 87.99488831 C165.86140442 86.24879456 165.86140442 86.24879456 164.32572937 84.38978577 C162.60338115 82.41399945 160.83083018 80.77831169 158.82966614 79.09059143 C154.55405817 75.40223476 150.57044512 71.48299843 146.60359192 67.46754456 C145.87921936 66.73938538 145.1548468 66.0112262 144.40852356 65.26100159 C141.34566768 62.18197504 138.28886881 59.09696133 135.23152161 56.01246643 C132.98265075 53.74538997 130.73068954 51.4814149 128.47859192 49.21754456 C127.80127014 48.53192444 127.12394836 47.84630432 126.42610168 47.13990784 C122.49556069 43.18952296 118.45631924 39.43890325 114.22070312 35.81666565 C111.67962965 33.5864769 109.49246255 31.07811769 107.27937317 28.53004456 C105.56079122 27.08326001 105.56079122 27.08326001 103.1582489 27.5758667 C100.26800218 28.42254429 99.0505173 29.32242489 96.92829895 31.42189026 C96.2647641 32.06958878 95.60122925 32.71728729 94.91758728 33.38461304 C94.21842194 34.08873825 93.51925659 34.79286346 92.79890442 35.51832581 C91.70725479 36.60067757 91.70725479 36.60067757 90.59355164 37.70489502 C89.06064163 39.23070926 87.53284377 40.76167429 86.00984192 42.29737854 C83.66938633 44.65173058 81.3058975 46.98106922 78.93952942 49.30934143 C77.45370219 50.79421781 75.96927744 52.28049919 74.48640442 53.76832581 C73.77509369 54.46637833 73.06378296 55.16443085 72.33091736 55.88363647 C71.68629547 56.54079147 71.04167358 57.19794647 70.3775177 57.87501526 C69.80413666 58.44935806 69.23075562 59.02370087 68.63999939 59.615448 C67.32257484 61.29544042 67.32257484 61.29544042 67.73857117 63.41351318 C68.93623484 66.29235562 70.87492409 67.99442765 73.10359192 70.15504456 C74.00077942 71.02645081 74.89796692 71.89785706 75.82234192 72.79566956 C79.3192983 76.07155398 82.89758865 79.23177284 86.54109192 82.34254456 C87.54109192 83.34254456 87.54109192 83.34254456 87.66609192 85.84254456 C87.54109192 88.34254456 87.54109192 88.34254456 86.54109192 89.34254456 C83.37510367 89.96527684 80.19424632 90.13551852 76.97859192 90.34254456 C76.11556458 90.46371643 75.25253723 90.58488831 74.36335754 90.70973206 C67.9877256 91.02321215 64.44806644 88.86589631 59.87301636 84.74305725 C57.06897929 82.05554282 54.33860234 79.30566422 51.64048767 76.51197815 C49.58440274 74.38730027 47.49721156 72.29977116 45.3943634 70.22145081 C41.25058513 66.12071946 37.14291425 61.98519071 33.04109192 57.84254456 C30.28370084 55.05827083 27.52278116 52.27756147 24.75984192 49.49879456 C24.15136414 48.88201843 23.54288635 48.26524231 22.91596985 47.629776 C19.172507 43.8652983 15.30059728 40.31603208 11.26733398 36.86329651 C8.44293039 34.37510707 5.99103459 31.56184829 3.49812317 28.74879456 C1.64876034 27.13429068 1.64876034 27.13429068 -0.63078308 27.32643127 C-4.95699896 28.88079164 -7.5150667 31.92778302 -10.66593933 35.19410706 C-11.35016464 35.88636383 -12.03438995 36.57862061 -12.73934937 37.29185486 C-14.9263499 39.50782982 -17.09931973 41.73695932 -19.27140808 43.96754456 C-21.43524137 46.17413753 -23.60194893 48.37782723 -25.77133179 50.57896423 C-27.1186443 51.94765357 -28.46240846 53.31984879 -29.80187988 54.69621277 C-32.97312614 57.93346534 -36.19396367 61.02398428 -39.63298035 63.97706604 C-42.81856041 66.72157767 -45.57727675 69.60613417 -48.27922058 72.83863831 C-63.03467511 89.60708493 -63.03467511 89.60708493 -71.78703308 90.77613831 C-77.09437134 90.94539571 -82.26436504 90.42822075 -87.45890808 89.34254456 C-88.34538269 87.26783752 -88.34538269 87.26783752 -88.45890808 84.34254456 C-86.75556394 81.7323229 -84.51998195 79.68434345 -82.27531433 77.53785706 C-81.62699142 76.89565216 -80.97866852 76.25344727 -80.31069946 75.59178162 C-78.22789908 73.53595239 -76.12498625 71.50208591 -74.02140808 69.46754456 C-72.63793233 68.10559709 -71.25575497 66.74232936 -69.87492371 65.37770081 C-59.83303329 55.49986445 -59.83303329 55.49986445 -54.49382019 50.89283752 C-50.31173677 47.26609013 -46.41035819 43.4041409 -42.52140808 39.46754456 C-41.79703552 38.73938538 -41.07266296 38.0112262 -40.32633972 37.26100159 C-38.03472505 34.9572881 -35.74640156 32.65034981 -33.45890808 30.34254456 C-30.44105727 27.29789676 -27.41977392 24.25671488 -24.39640808 21.21754456 C-23.7190863 20.53192444 -23.04176453 19.84630432 -22.34391785 19.13990784 C-18.44852161 15.22484515 -14.44996276 11.5097084 -10.24113464 7.93263245 C-8.46244506 6.34570022 -6.88134165 4.66089433 -5.27140808 2.90504456 C-2.45890808 0.34254456 -2.45890808 0.34254456 0 0 Z " fill="#F5F6ED" transform="translate(188.4589080810547,154.65745544433594)"/>
<path d="M0 0 C10.75921224 6.23927959 20.11462485 14.31132908 24.37109375 26.375 C19.19119439 25.75759785 14.91748216 23.34648249 10.30859375 21.0625 C-1.64341644 14.86465499 -1.64341644 14.86465499 -14.62890625 12.375 C-7.29522643 17.84465964 0.34381418 22.18422354 8.49609375 26.3125 C10.21699219 27.19518555 10.21699219 27.19518555 11.97265625 28.09570312 C14.76884228 29.52874847 17.56826374 30.95500623 20.37109375 32.375 C20.37109375 33.035 20.37109375 33.695 20.37109375 34.375 C8.48198913 37.10328334 -3.75540463 35.83003453 -14.41796875 29.796875 C-16.94332339 28.10313261 -19.29191124 26.31904895 -21.62890625 24.375 C-22.26441406 23.85164063 -22.89992188 23.32828125 -23.5546875 22.7890625 C-30.24132363 16.71030239 -35.58126868 8.41423182 -36.62890625 -0.625 C-26.43502394 -4.89379494 -10.01742905 -4.61603131 0 0 Z " fill="#373D48" transform="translate(141.62890625,133.625)"/>
<path d="M0 0 C0.79067871 0.00386719 1.58135742 0.00773438 2.39599609 0.01171875 C7.88289632 0.09312341 12.84186174 0.6846257 18.125 2.25 C16.81994431 13.26140736 9.48327834 22.3650453 1.125 29.25 C-10.05303459 37.29323523 -23.20172858 39.53976952 -36.625 37.75 C-37.3675 37.585 -38.11 37.42 -38.875 37.25 C-38.875 36.59 -38.875 35.93 -38.875 35.25 C-37.8334375 34.78851563 -36.791875 34.32703125 -35.71875 33.8515625 C-24.08412332 28.59342217 -13.49002041 22.32668027 -2.875 15.25 C-9.69943135 15.72778983 -15.09245112 17.72855789 -21.3125 20.5 C-22.20259766 20.88285156 -23.09269531 21.26570313 -24.00976562 21.66015625 C-29.21802366 23.93520249 -34.18156146 26.44351504 -39.08227539 29.32324219 C-40.875 30.25 -40.875 30.25 -42.875 30.25 C-41.45250478 24.08585403 -37.89409261 19.95126988 -33.875 15.25 C-33.33746094 14.61578125 -32.79992187 13.9815625 -32.24609375 13.328125 C-23.70914012 4.03004538 -12.42102353 -0.14677724 0 0 Z " fill="#383D48" transform="translate(424.875,201.75)"/>
<path d="M0 0 C4.80618366 1.00692932 7.56504788 3.48429057 10.21875 7.46484375 C10.71179138 12.69108237 10.04021638 16.03111086 7.21875 20.46484375 C5.91259574 21.50009194 4.58254611 22.50680516 3.21875 23.46484375 C3.651875 24.09132813 4.085 24.7178125 4.53125 25.36328125 C5.088125 26.18054688 5.645 26.9978125 6.21875 27.83984375 C6.775625 28.65195312 7.3325 29.4640625 7.90625 30.30078125 C9.21875 32.46484375 9.21875 32.46484375 9.21875 34.46484375 C6.91796875 34.7734375 6.91796875 34.7734375 4.21875 34.46484375 C2.55078125 32.3125 2.55078125 32.3125 1.03125 29.52734375 C-1.42851699 25.58108466 -1.42851699 25.58108466 -5.453125 23.578125 C-8.51417256 23.2618745 -8.51417256 23.2618745 -12.78125 23.46484375 C-12.78125 27.09484375 -12.78125 30.72484375 -12.78125 34.46484375 C-14.10125 34.46484375 -15.42125 34.46484375 -16.78125 34.46484375 C-16.78125 23.57484375 -16.78125 12.68484375 -16.78125 1.46484375 C-15.46125 1.46484375 -14.14125 1.46484375 -12.78125 1.46484375 C-12.45125 3.11484375 -12.12125 4.76484375 -11.78125 6.46484375 C-11.141875 5.47484375 -10.5025 4.48484375 -9.84375 3.46484375 C-6.91490761 -0.04643889 -4.43735657 -0.30321937 0 0 Z " fill="#181818" transform="translate(334.78125,264.53515625)"/>
<path d="M0 0 C5.52701128 2.41730823 9.41270836 6.85871654 12.1171875 12.2109375 C15.26668498 20.75957352 14.5945533 27.76248203 11 36 C10.34 36 9.68 36 9 36 C8.72285156 34.72382813 8.44570312 33.44765625 8.16015625 32.1328125 C7.79441043 30.46351107 7.42851738 28.7942419 7.0625 27.125 C6.88009766 26.28324219 6.69769531 25.44148438 6.50976562 24.57421875 C6.33251953 23.76855469 6.15527344 22.96289062 5.97265625 22.1328125 C5.81031494 21.38918457 5.64797363 20.64555664 5.48071289 19.87939453 C5.05224081 17.92812876 5.05224081 17.92812876 4 16 C3.75908465 23.2274605 4.65504172 29.90294338 6 37 C2.19390191 35.5304003 0.8268074 33.61508531 -1.1875 30.125 C-1.69667969 29.26132813 -2.20585937 28.39765625 -2.73046875 27.5078125 C-5.53996772 21.95797147 -5.75605206 16.12080445 -5 10 C-3.6538329 6.45572089 -1.96617735 3.23717057 0 0 Z " fill="#363C46" transform="translate(165,117)"/>
<path d="M0 0 C3 1 3 1 4.16796875 2.93359375 C7.48917188 11.09026503 8.39991143 17.78638045 5.375 26.1875 C3.30215778 30.90731699 0.54948094 34.28917902 -3 38 C-4.30538984 34.08383047 -3.3926183 31.04598432 -2.5625 27.125 C-1.64504331 22.72601552 -0.77839636 18.52071428 -1 14 C-3.99671237 21.13502944 -5.4996986 28.42400993 -7 36 C-7.66 36 -8.32 36 -9 36 C-12.39112976 29.78292876 -12.93924887 24.01305822 -12 17 C-9.72800407 9.89117719 -5.5650195 4.8433311 0 0 Z " fill="#363C46" transform="translate(381,188)"/>
<path d="M0 0 C1.98 0 3.96 0 6 0 C9.51787038 7.22178199 12.45694943 14.62157172 15.3125 22.125 C15.67408203 23.0739917 16.03566406 24.0229834 16.40820312 25.00073242 C19 31.86389512 19 31.86389512 19 33 C17.35 33 15.7 33 14 33 C13.35004703 31.58521865 12.70521278 30.16808513 12.0625 28.75 C11.70285156 27.96109375 11.34320313 27.1721875 10.97265625 26.359375 C10 24 10 24 9 20 C4.38 20 -0.24 20 -5 20 C-5.474375 21.588125 -5.94875 23.17625 -6.4375 24.8125 C-7.25720605 27.55673329 -8.09422494 30.28267481 -9 33 C-9.66 32.67 -10.32 32.34 -11 32 C-7.37 21.44 -3.74 10.88 0 0 Z " fill="#E9E9E1" transform="translate(308,332)"/>
<path d="M0 0 C1.98 0 3.96 0 6 0 C9.33333333 8.33333333 12.66666667 16.66666667 16 25 C16.37914551 25.88598877 16.75829102 26.77197754 17.14892578 27.68481445 C18 30 18 30 18 33 C16.35 33 14.7 33 13 33 C12.32942113 31.2097939 11.6636531 29.41778511 11 27.625 C10.62875 26.62726563 10.2575 25.62953125 9.875 24.6015625 C9 22 9 22 9 20 C4.38 20.33 -0.24 20.66 -5 21 C-5.99 23.475 -5.99 23.475 -7 26 C-8.22268799 22.33193602 -7.63313577 21.2553473 -6.34765625 17.67578125 C-5.98349609 16.64775391 -5.61933594 15.61972656 -5.24414062 14.56054688 C-4.85419922 13.48869141 -4.46425781 12.41683594 -4.0625 11.3125 C-3.48338867 9.68731445 -3.48338867 9.68731445 -2.89257812 8.02929688 C-1.9364747 5.34984654 -0.97200143 2.6737156 0 0 Z " fill="#E9EAE2" transform="translate(217,332)"/>
<path d="M0 0 C3.97524509 2.28902432 6.50999398 5.20748796 8.5625 9.3125 C9.06488635 15.76623238 9.50691685 21.87192504 5.5625 27.3125 C1.05429097 31.69886554 -3.53894503 33.36344496 -9.75 33.6875 C-14.86941038 33.54913756 -19.15377689 32.11966925 -23.4375 29.3125 C-27.7765291 23.99718935 -28.80260653 19.57228654 -28.71484375 12.8828125 C-28.266448 8.72725754 -26.97803936 6.65531495 -24.4375 3.3125 C-17.27106842 -2.24514082 -8.46110208 -3.94427315 0 0 Z M-21.25 4.25 C-24.23741188 9.43866274 -23.99937658 15.50109078 -23.4375 21.3125 C-22.1318223 26.12620332 -20.45644169 28.65318479 -16.25 31.375 C-11.64774141 32.50670293 -8.00616326 32.58966853 -3.4375 31.3125 C-0.14639367 29.21179383 1.3958853 27.56242205 3.5625 24.3125 C3.83791564 21.49166404 3.97842043 18.82212845 4 16 C4.03287109 15.25298828 4.06574219 14.50597656 4.09960938 13.73632812 C4.13910868 9.64635489 3.80520517 7.08684756 1.18359375 3.85546875 C-2.49339057 0.28808157 -4.81725412 -0.54020492 -9.875 -1 C-14.67735263 -0.578741 -17.9313647 0.7024933 -21.25 4.25 Z " fill="#D6D7CF" transform="translate(304.4375,266.6875)"/>
<path d="M0 0 C7.92 0 15.84 0 24 0 C24 0.33 24 0.66 24 1 C17.73 1 11.46 1 5 1 C5 5.62 5 10.24 5 15 C9.95 15 14.9 15 20 15 C20 15.33 20 15.66 20 16 C15.05 16 10.1 16 5 16 C5 21.28 5 26.56 5 32 C11.27 32 17.54 32 24 32 C24 32.33 24 32.66 24 33 C16.08 33 8.16 33 0 33 C0 22.11 0 11.22 0 0 Z " fill="#DADBD3" transform="translate(271,332)"/>
<path d="M0 0 C7.92 0 15.84 0 24 0 C24 0.33 24 0.66 24 1 C17.73 1 11.46 1 5 1 C5 5.62 5 10.24 5 15 C9.95 15 14.9 15 20 15 C20 15.33 20 15.66 20 16 C15.05 16 10.1 16 5 16 C5 21.28 5 26.56 5 32 C11.27 32 17.54 32 24 32 C24 32.33 24 32.66 24 33 C16.08 33 8.16 33 0 33 C0 22.11 0 11.22 0 0 Z " fill="#DADBD3" transform="translate(189,266)"/>
<path d="M0 0 C1.65 0 3.3 0 5 0 C6.65293577 4.05964605 8.29609653 8.123179 9.9375 12.1875 C10.40607422 13.33798828 10.87464844 14.48847656 11.35742188 15.67382812 C11.80537109 16.78564453 12.25332031 17.89746094 12.71484375 19.04296875 C13.12855225 20.06414795 13.54226074 21.08532715 13.96850586 22.13745117 C14.91499026 24.76408541 15.53861936 27.25158423 16 30 C16.66 30 17.32 30 18 30 C18.226875 28.80375 18.45375 27.6075 18.6875 26.375 C20.14819347 19.7112524 22.62240483 13.37957787 25 7 C26.30081307 10.6113224 25.68476184 12.66493791 24.34765625 16.203125 C23.98349609 17.1828125 23.61933594 18.1625 23.24414062 19.171875 C22.85419922 20.18765625 22.46425781 21.2034375 22.0625 22.25 C21.67642578 23.28125 21.29035156 24.3125 20.89257812 25.375 C19.93802268 27.92048119 18.97355028 30.46173614 18 33 C16.02 33 14.04 33 12 33 C10.2867268 28.62340717 8.57784507 24.24513541 6.87304688 19.86523438 C6.2922269 18.37485291 5.71020032 16.88494109 5.12695312 15.39550781 C4.28980472 13.25707769 3.45698106 11.11700743 2.625 8.9765625 C2.23127197 7.97491562 2.23127197 7.97491562 1.82958984 6.95303345 C0 2.22774341 0 2.22774341 0 0 Z " fill="#DBDCD4" transform="translate(244,266)"/>
<path d="M0 0 C10.56 0 21.12 0 32 0 C32 0.33 32 0.66 32 1 C27.38 1 22.76 1 18 1 C18 11.56 18 22.12 18 33 C16.35 33 14.7 33 13 33 C13 22.44 13 11.88 13 1 C8.71 1 4.42 1 0 1 C0 0.67 0 0.34 0 0 Z " fill="#DBDCD4" transform="translate(237,332)"/>
<path d="M0 0 C10.56 0 21.12 0 32 0 C32 0.33 32 0.66 32 1 C27.38 1 22.76 1 18 1 C18 11.56 18 22.12 18 33 C16.35 33 14.7 33 13 33 C13 22.44 13 11.88 13 1 C8.71 1 4.42 1 0 1 C0 0.67 0 0.34 0 0 Z " fill="#DBDCD4" transform="translate(123,266)"/>
<path d="M0 0 C0.97066406 -0.01417969 1.94132812 -0.02835937 2.94140625 -0.04296875 C5.4375 0.1875 5.4375 0.1875 7.4375 2.1875 C6.33341797 2.13529297 6.33341797 2.13529297 5.20703125 2.08203125 C-2.25310114 1.68681019 -2.25310114 1.68681019 -8.5625 5.1875 C-11.64481575 9.33242338 -11.99484839 12.50945197 -12 17.625 C-12.01933594 18.90246094 -12.03867188 20.17992187 -12.05859375 21.49609375 C-11.48257403 25.7822247 -10.32445328 27.89160144 -7.5625 31.1875 C-4.296803 33.58874779 -1.28160064 33.3987848 2.6875 33.3125 C4.30398437 33.28542969 4.30398437 33.28542969 5.953125 33.2578125 C6.77296875 33.23460937 7.5928125 33.21140625 8.4375 33.1875 C3.95701047 36.17449302 -0.30971575 35.78257066 -5.5625 35.1875 C-11.13580197 33.30256241 -14.95595954 29.40058092 -17.5625 24.1875 C-18.05578755 18.33274289 -18.41994288 12.99765719 -15.875 7.625 C-10.85683874 2.33558678 -7.33651768 0.04884499 0 0 Z " fill="#D9DAD2" transform="translate(155.5625,330.8125)"/>
<path d="M0 0 C4.80436782 -0.38434943 8.09024857 -0.47968712 12.4375 1.8125 C15.65842005 4.5620659 16.91054912 6.05182071 17.3125 10.3125 C16.97156638 14.33551677 16.1578895 16.60903078 14 20 C12.69384574 21.03524819 11.36379611 22.04196141 10 23 C10.433125 23.62648438 10.86625 24.25296875 11.3125 24.8984375 C11.869375 25.71570313 12.42625 26.53296875 13 27.375 C13.556875 28.18710937 14.11375 28.99921875 14.6875 29.8359375 C16 32 16 32 16 34 C13.76953125 34.34375 13.76953125 34.34375 11 34 C8.76171875 31.59375 8.76171875 31.59375 6.6875 28.5 C5.99011719 27.4790625 5.29273438 26.458125 4.57421875 25.40625 C4.05472656 24.6121875 3.53523438 23.818125 3 23 C3.99 22.34 4.98 21.68 6 21 C9.39120804 18.73735482 9.39120804 18.73735482 11 15 C11.45999264 8.65784868 11.45999264 8.65784868 9 3 C6.71294169 1.85647084 5.40735238 1.89665561 2.875 1.9375 C0.956875 1.9684375 0.956875 1.9684375 -1 2 C-0.67 1.34 -0.34 0.68 0 0 Z " fill="#DADBD3" transform="translate(328,265)"/>
<path d="M0 0 C1.65 0 3.3 0 5 0 C5 10.89 5 21.78 5 33 C3.35 33 1.7 33 0 33 C-0.33 30.69 -0.66 28.38 -1 26 C-1.66 26.33 -2.32 26.66 -3 27 C-2.68289063 25.88625 -2.36578125 24.7725 -2.0390625 23.625 C-0.82319338 18.76152351 -0.55911855 13.99421565 -0.375 9 C-0.33632813 8.12988281 -0.29765625 7.25976562 -0.2578125 6.36328125 C-0.16459113 4.24249514 -0.08125864 2.12127815 0 0 Z " fill="#E1E2DA" transform="translate(357,332)"/>
<path d="M0 0 C1.65 0 3.3 0 5 0 C5.01981934 0.76143311 5.03963867 1.52286621 5.06005859 2.30737305 C5.15549922 5.76775472 5.26510212 9.22754855 5.375 12.6875 C5.4059375 13.88568359 5.436875 15.08386719 5.46875 16.31835938 C5.50742187 17.47529297 5.54609375 18.63222656 5.5859375 19.82421875 C5.6173584 20.88729248 5.6487793 21.95036621 5.68115234 23.0456543 C6.00745015 26.06903081 6.61906815 28.29648552 8 31 C10.15824934 32.02818386 10.15824934 32.02818386 12.625 32.3125 C13.44226563 32.45300781 14.25953125 32.59351563 15.1015625 32.73828125 C15.72804688 32.82464844 16.35453125 32.91101563 17 33 C17 33.33 17 33.66 17 34 C12.78875012 34.24772058 9.1197503 34.41382076 5.125 32.9375 C1.48658748 29.62012388 0.16893947 25.99124467 -0.23925781 21.17993164 C-0.29464859 17.96902886 -0.26180759 14.7729689 -0.1875 11.5625 C-0.17396484 10.44939453 -0.16042969 9.33628906 -0.14648438 8.18945312 C-0.11132997 5.45912788 -0.06212106 2.72982256 0 0 Z " fill="#E1E1D9" transform="translate(330,332)"/>
<path d="M0 0 C1.65 0 3.3 0 5 0 C5 10.89 5 21.78 5 33 C3.35 33 1.7 33 0 33 C0 22.11 0 11.22 0 0 Z " fill="#E4E5DD" transform="translate(235,266)"/>
<path d="M0 0 C2.609375 -0.62109375 2.609375 -0.62109375 6 0 C8.57897507 3.0191138 10.36785812 6.45459173 12.25 9.9375 C13.29278734 11.80307199 14.33946761 13.66647502 15.390625 15.52734375 C16.0717334 16.77632446 16.0717334 16.77632446 16.76660156 18.05053711 C17.85536789 20.14299317 17.85536789 20.14299317 20 21 C20.12375 20.05125 20.2475 19.1025 20.375 18.125 C21 15 21 15 23 13 C22.37957611 17.26621377 21.41324383 21.21949133 20.0625 25.3125 C19.72347656 26.36050781 19.38445312 27.40851563 19.03515625 28.48828125 C18 31 18 31 16 32 C16.99 28.535 16.99 28.535 18 25 C15.36 25 12.72 25 10 25 C11.32 24.67 12.64 24.34 14 24 C13.57589844 23.30849854 13.15179688 22.61699707 12.71484375 21.90454102 C10.80760827 18.79192223 8.90376138 15.67724473 7 12.5625 C6.33226562 11.47388672 5.66453125 10.38527344 4.9765625 9.26367188 C4.34492188 8.22919922 3.71328125 7.19472656 3.0625 6.12890625 C2.47597656 5.17056885 1.88945312 4.21223145 1.28515625 3.22485352 C0 1 0 1 0 0 Z " fill="#DBDCD4" transform="translate(348,266)"/>
<path d="M0 0 C1.32 0 2.64 0 4 0 C4.33 1.65 4.66 3.3 5 5 C6.32 3.68 7.64 2.36 9 1 C8.52449439 2.48034764 8.04448784 3.95925021 7.5625 5.4375 C7.29566406 6.26121094 7.02882813 7.08492188 6.75390625 7.93359375 C6 10 6 10 5 11 C4.84285346 12.63256758 4.74914586 14.27135338 4.68359375 15.91015625 C4.64169922 16.89951172 4.59980469 17.88886719 4.55664062 18.90820312 C4.51732422 19.94912109 4.47800781 20.99003906 4.4375 22.0625 C4.37272461 23.62967773 4.37272461 23.62967773 4.30664062 25.22851562 C4.20018775 27.81886884 4.0981724 30.40932186 4 33 C2.68 33 1.36 33 0 33 C0 22.11 0 11.22 0 0 Z " fill="#EFF0E7" transform="translate(318,266)"/>
<path d="M0 0 C0.99 0.33 1.98 0.66 3 1 C2.360625 1.7425 1.72125 2.485 1.0625 3.25 C-2.87509094 8.50012125 -2.64153923 14.63733695 -2 21 C-0.50440962 25.74249385 1.5757643 29.47186531 6 32 C1.12547646 31.54655595 -1.56374937 30.52912227 -5 27 C-8.19186073 21.49679185 -8.92169426 16.31006073 -8 10 C-6.45982844 5.77440111 -4.07523802 2.10334865 0 0 Z " fill="#E4E5DD" transform="translate(284,267)"/>
<path d="M0 0 C1.32 0 2.64 0 4 0 C4 10.89 4 21.78 4 33 C2.68 33 1.36 33 0 33 C0 22.11 0 11.22 0 0 Z " fill="#F8F9F0" transform="translate(198,332)"/>
<path d="M0 0 C1.32 0 2.64 0 4 0 C4 10.89 4 21.78 4 33 C2.68 33 1.36 33 0 33 C0 22.11 0 11.22 0 0 Z " fill="#F8F9F0" transform="translate(175,332)"/>
<path d="M0 0 C1.32 0 2.64 0 4 0 C4 10.89 4 21.78 4 33 C2.68 33 1.36 33 0 33 C0 22.11 0 11.22 0 0 Z " fill="#F8F9F0" transform="translate(180,266)"/>
<path d="M0 0 C1.32 0 2.64 0 4 0 C4 10.89 4 21.78 4 33 C2.68 33 1.36 33 0 33 C0 22.11 0 11.22 0 0 Z " fill="#F8F9F0" transform="translate(157,266)"/>
<path d="M0 0 C0.8146875 0.00257813 1.629375 0.00515625 2.46875 0.0078125 C3.2834375 0.00523437 4.098125 0.00265625 4.9375 0 C6.96875 0.1328125 6.96875 0.1328125 7.96875 1.1328125 C8.0666557 2.63019374 8.09849864 4.13224142 8.09375 5.6328125 C8.09632813 6.4475 8.09890625 7.2621875 8.1015625 8.1015625 C7.96875 10.1328125 7.96875 10.1328125 6.96875 11.1328125 C5.28266034 11.20486761 3.59374341 11.21667318 1.90625 11.1953125 C0.98714844 11.18628906 0.06804687 11.17726562 -0.87890625 11.16796875 C-1.58917969 11.15636719 -2.29945313 11.14476562 -3.03125 11.1328125 C-3.05813151 9.48706684 -3.07759123 7.84119837 -3.09375 6.1953125 C-3.10535156 5.27878906 -3.11695313 4.36226562 -3.12890625 3.41796875 C-3.00402422 0.49572926 -2.91184986 0.19039018 0 0 Z " fill="#E5E6DD" transform="translate(298.03125,202.8671875)"/>
<path d="M0 0 C0.8146875 0.00257813 1.629375 0.00515625 2.46875 0.0078125 C3.2834375 0.00523437 4.098125 0.00265625 4.9375 0 C6.96875 0.1328125 6.96875 0.1328125 7.96875 1.1328125 C8.0666557 2.63019374 8.09849864 4.13224142 8.09375 5.6328125 C8.09632813 6.4475 8.09890625 7.2621875 8.1015625 8.1015625 C7.96875 10.1328125 7.96875 10.1328125 6.96875 11.1328125 C5.47136876 11.2307182 3.96932108 11.26256114 2.46875 11.2578125 C1.6540625 11.26039063 0.839375 11.26296875 0 11.265625 C-2.03125 11.1328125 -2.03125 11.1328125 -3.03125 10.1328125 C-3.1291557 8.63543126 -3.16099864 7.13338358 -3.15625 5.6328125 C-3.15882813 4.818125 -3.16140625 4.0034375 -3.1640625 3.1640625 C-2.98414019 0.4123095 -2.751753 0.17992231 0 0 Z " fill="#E5E6DE" transform="translate(298.03125,216.8671875)"/>
<path d="M0 0 C0.8146875 0.00257813 1.629375 0.00515625 2.46875 0.0078125 C3.2834375 0.00523437 4.098125 0.00265625 4.9375 0 C6.96875 0.1328125 6.96875 0.1328125 7.96875 1.1328125 C8.0666557 2.63019374 8.09849864 4.13224142 8.09375 5.6328125 C8.09632813 6.4475 8.09890625 7.2621875 8.1015625 8.1015625 C7.96875 10.1328125 7.96875 10.1328125 6.96875 11.1328125 C5.47136876 11.2307182 3.96932108 11.26256114 2.46875 11.2578125 C1.6540625 11.26039063 0.839375 11.26296875 0 11.265625 C-2.03125 11.1328125 -2.03125 11.1328125 -3.03125 10.1328125 C-3.1291557 8.63543126 -3.16099864 7.13338358 -3.15625 5.6328125 C-3.15882813 4.818125 -3.16140625 4.0034375 -3.1640625 3.1640625 C-2.98414019 0.4123095 -2.751753 0.17992231 0 0 Z " fill="#E5E6DE" transform="translate(193.03125,216.8671875)"/>
<path d="M0 0 C0.8146875 0.00257813 1.629375 0.00515625 2.46875 0.0078125 C3.2834375 0.00523437 4.098125 0.00265625 4.9375 0 C6.96875 0.1328125 6.96875 0.1328125 7.96875 1.1328125 C8.0666557 2.63019374 8.09849864 4.13224142 8.09375 5.6328125 C8.09632813 6.4475 8.09890625 7.2621875 8.1015625 8.1015625 C7.96875 10.1328125 7.96875 10.1328125 6.96875 11.1328125 C5.47136876 11.2307182 3.96932108 11.26256114 2.46875 11.2578125 C1.6540625 11.26039063 0.839375 11.26296875 0 11.265625 C-2.03125 11.1328125 -2.03125 11.1328125 -3.03125 10.1328125 C-3.1291557 8.63543126 -3.16099864 7.13338358 -3.15625 5.6328125 C-3.15882813 4.818125 -3.16140625 4.0034375 -3.1640625 3.1640625 C-2.98414019 0.4123095 -2.751753 0.17992231 0 0 Z " fill="#E6E7DE" transform="translate(193.03125,202.8671875)"/>
<path d="M0 0 C3.3 0 6.6 0 10 0 C10 3.63 10 7.26 10 11 C6.7 11 3.4 11 0 11 C0 7.37 0 3.74 0 0 Z " fill="#EBECE3" transform="translate(176,217)"/>
<path d="M0 0 C3.3 0 6.6 0 10 0 C10 3.63 10 7.26 10 11 C6.7 11 3.4 11 0 11 C0 7.37 0 3.74 0 0 Z " fill="#EBECE4" transform="translate(281,203)"/>
<path d="M0 0 C3.3 0 6.6 0 10 0 C10 3.63 10 7.26 10 11 C6.7 11 3.4 11 0 11 C0 7.37 0 3.74 0 0 Z " fill="#ECEDE4" transform="translate(176,203)"/>
<path d="M0 0 C3.3 0 6.6 0 10 0 C10.09765625 7.71484375 10.09765625 7.71484375 10 10 C9 11 9 11 6.93359375 11.09765625 C3.46679688 11.04882812 3.46679688 11.04882812 0 11 C0 7.37 0 3.74 0 0 Z " fill="#ECEDE4" transform="translate(281,217)"/>
<path d="M0 0 C4.03809068 4.61496078 6 9.92852877 6 16 C2.37 16 -1.26 16 -5 16 C-2.05357143 4.88392857 -2.05357143 4.88392857 0 0 Z " fill="#141413" transform="translate(309,334)"/>
<path d="M0 0 C2.91308822 1.45654411 3.05452316 3.35387648 4.125 6.375 C4.47820312 7.35210937 4.83140625 8.32921875 5.1953125 9.3359375 C6 12 6 12 6 15 C2.37 15 -1.26 15 -5 15 C-3.91463082 9.48966417 -2.78609311 4.93898323 0 0 Z " fill="#141414" transform="translate(218,335)"/>
<path d="M0 0 C3.3 0 6.6 0 10 0 C9.01 2.97 8.02 5.94 7 9 C4.2351335 9.22417836 2.53722513 9.32233508 0.125 7.875 C-1.55290631 5.07848948 -0.74875648 3.06309468 0 0 Z " fill="#373736" transform="translate(356,291)"/>
<path d="M0 0 C0.66 0.66 1.32 1.32 2 2 C0.02 7.28 -1.96 12.56 -4 18 C-0.04 17.67 3.92 17.34 8 17 C8.33 17.99 8.66 18.98 9 20 C4.38 20 -0.24 20 -5 20 C-5.474375 21.588125 -5.94875 23.17625 -6.4375 24.8125 C-7.25720605 27.55673329 -8.09422494 30.28267481 -9 33 C-9.66 32.67 -10.32 32.34 -11 32 C-7.37 21.44 -3.74 10.88 0 0 Z " fill="#8F908B" transform="translate(308,332)"/>
<path d="M0 0 C0 0.66 0 1.32 0 2 C0.66 2 1.32 2 2 2 C3.5078125 3.8984375 3.5078125 3.8984375 5.125 6.375 C5.66382813 7.18710937 6.20265625 7.99921875 6.7578125 8.8359375 C8 11 8 11 8 13 C5.76953125 13.34375 5.76953125 13.34375 3 13 C0.76171875 10.59375 0.76171875 10.59375 -1.3125 7.5 C-2.00988281 6.4790625 -2.70726562 5.458125 -3.42578125 4.40625 C-3.94527344 3.6121875 -4.46476562 2.818125 -5 2 C-2 0 -2 0 0 0 Z " fill="#E9EAE2" transform="translate(336,286)"/>
<path d="M0 0 C0.99 0.33 1.98 0.66 3 1 C2.73445312 1.58007812 2.46890625 2.16015625 2.1953125 2.7578125 C0.22438666 7.11686745 -1.59049252 11.41910068 -3 16 C2.94 15.505 2.94 15.505 9 15 C9 15.99 9 16.98 9 18 C2.565 18.495 2.565 18.495 -4 19 C-4.99 21.475 -4.99 21.475 -6 24 C-7.17791932 20.46624203 -6.75415072 19.55148893 -5.56640625 16.11328125 C-5.0878418 14.7065918 -5.0878418 14.7065918 -4.59960938 13.27148438 C-4.25736328 12.29501953 -3.91511719 11.31855469 -3.5625 10.3125 C-3.22412109 9.32443359 -2.88574219 8.33636719 -2.53710938 7.31835938 C-1.69940026 4.87602435 -0.85342917 2.43687729 0 0 Z " fill="#8D8E89" transform="translate(216,334)"/>
</svg>
