<?xml version="1.0" encoding="UTF-8"?>
<svg version="1.1" xmlns="http://www.w3.org/2000/svg" width="500" height="500">
<path d="M0 0 C165 0 330 0 500 0 C500 165 500 330 500 500 C335 500 170 500 0 500 C0 335 0 170 0 0 Z " fill="#F7F8EF" transform="translate(0,0)"/>
<path d="M0 0 C3.06903463 0.41969406 3.96699935 1.16353106 6.1085968 3.35829163 C6.76310318 4.01640335 7.41760956 4.67451508 8.09194946 5.35256958 C8.7847551 6.0743187 9.47756073 6.79606781 10.19136047 7.53968811 C11.28428658 8.64678383 11.28428658 8.64678383 12.39929199 9.77624512 C14.73136137 12.14292766 17.04576254 14.52602111 19.35932922 16.91078186 C21.66545066 19.26711509 23.97512159 21.61987998 26.28723145 23.97033691 C27.72401778 25.43319467 29.1568257 26.89997484 30.58486938 28.37136841 C34.50727222 32.38955641 38.5359091 36.18069051 42.81713867 39.81567383 C44.54682922 41.34828186 44.54682922 41.34828186 47.23432922 44.28578186 C49.33857268 46.55222109 49.33857268 46.55222109 51.96875 46.66531372 C55.07693266 46.28309392 55.94586859 45.55468797 58.1085968 43.33827209 C58.76310318 42.68016037 59.41760956 42.02204865 60.09194946 41.34399414 C60.7847551 40.62224503 61.47756073 39.90049591 62.19136047 39.15687561 C62.91997787 38.4188118 63.64859528 37.68074799 64.39929199 36.9203186 C66.73136137 34.55363606 69.04576254 32.17054261 71.35932922 29.78578186 C73.66545066 27.42944863 75.97512159 25.07668374 78.28723145 22.72622681 C79.72401778 21.26336905 81.1568257 19.79658888 82.58486938 18.32519531 C86.50727222 14.30700731 90.5359091 10.51587321 94.81713867 6.88088989 C96.78349006 5.19239553 96.78349006 5.19239553 99.23432922 2.41078186 C101.54682922 0.34828186 101.54682922 0.34828186 103.9744873 0.0369873 C107.04060385 0.4080365 107.88718502 1.08230977 110.01679993 3.26649475 C110.65128555 3.90458572 111.28577118 4.5426767 111.93948364 5.20010376 C112.6104155 5.8999791 113.28134735 6.59985443 113.97261047 7.32093811 C114.67903183 8.03680588 115.38545319 8.75267365 116.11328125 9.49023438 C118.37403249 11.78559349 120.61709552 14.09734322 122.85932922 16.41078186 C125.09411368 18.69579162 127.33245168 20.97722798 129.57324219 23.25634766 C130.96552351 24.67468341 132.35382357 26.0969428 133.73733521 27.52383423 C137.52246166 31.40426738 141.42889493 35.03030977 145.53552246 38.56677246 C149.0773924 41.70397396 152.37843382 45.0779282 155.70307922 48.44203186 C156.44964783 49.19238708 157.19621643 49.94274231 157.96540833 50.71583557 C161.12384035 53.8904469 164.27622201 57.07104102 167.42915344 60.25111389 C169.74752668 62.58768547 172.06898442 64.92116185 174.39057922 67.25453186 C175.43937256 68.31577271 175.43937256 68.31577271 176.50935364 69.39845276 C180.53137274 73.44017469 184.66166511 77.28655501 188.98591614 81.00392151 C189.86282279 81.75917082 190.72848736 82.52994 191.54682922 83.34828186 C191.67182922 85.84828186 191.67182922 85.84828186 191.54682922 88.34828186 C189.17406369 90.7210474 183.5997665 89.77160241 180.42182922 89.84828186 C179.01417297 89.9294928 179.01417297 89.9294928 177.57807922 90.01234436 C170.70850417 90.14704191 170.70850417 90.14704191 167.58686829 88.00062561 C165.86714172 86.25453186 165.86714172 86.25453186 164.33146667 84.39552307 C162.60911846 82.41973676 160.83656748 80.784049 158.83540344 79.09632874 C154.55979548 75.40797206 150.57618243 71.48873574 146.60932922 67.47328186 C145.88495667 66.74512268 145.16058411 66.0169635 144.41426086 65.26673889 C141.35140499 62.18771235 138.29460612 59.10269863 135.23725891 56.01820374 C132.98838805 53.75112728 130.73642684 51.4871522 128.48432922 49.22328186 C127.80700745 48.53766174 127.12968567 47.85204163 126.43183899 47.14564514 C122.50129799 43.19526026 118.46205654 39.44464056 114.22644043 35.82240295 C111.68536695 33.59221421 109.49819986 31.083855 107.28511047 28.53578186 C105.56652852 27.08899731 105.56652852 27.08899731 103.16398621 27.581604 C100.27373948 28.42828159 99.0562546 29.32816219 96.93403625 31.42762756 C96.2705014 32.07532608 95.60696655 32.7230246 94.92332458 33.39035034 C94.22415924 34.09447556 93.5249939 34.79860077 92.80464172 35.52406311 C91.7129921 36.60641487 91.7129921 36.60641487 90.59928894 37.71063232 C89.06637894 39.23644657 87.53858107 40.76741159 86.01557922 42.30311584 C83.67512364 44.65746789 81.3116348 46.98680653 78.94526672 49.31507874 C77.45943949 50.79995512 75.97501474 52.28623649 74.49214172 53.77406311 C73.78083099 54.47211563 73.06952026 55.17016815 72.33665466 55.88937378 C71.69203278 56.54652878 71.04741089 57.20368378 70.383255 57.88075256 C69.80987396 58.45509537 69.23649292 59.02943817 68.64573669 59.6211853 C67.32831214 61.30117772 67.32831214 61.30117772 67.74430847 63.41925049 C68.94197214 66.29809292 70.88066139 68.00016496 73.10932922 70.16078186 C74.00651672 71.03218811 74.90370422 71.90359436 75.82807922 72.80140686 C79.32503561 76.07729129 82.90332596 79.23751014 86.54682922 82.34828186 C87.54682922 83.34828186 87.54682922 83.34828186 87.67182922 85.84828186 C87.54682922 88.34828186 87.54682922 88.34828186 86.54682922 89.34828186 C79.2761711 90.85632217 70.18930312 91.66007008 63.38764954 88.27308655 C58.77996836 84.92183339 55.09048485 80.58626124 51.31001282 76.35609436 C45.97934773 70.46880057 40.22127792 64.97149861 34.58607483 59.37882996 C32.51866321 57.31997376 30.46186641 55.25111675 28.40864563 53.17811584 C19.9786316 44.66635684 19.9786316 44.66635684 11.06611633 36.66688538 C8.29996736 34.26611877 5.92907849 31.49119892 3.50386047 28.75453186 C1.65266589 27.1361729 1.65266589 27.1361729 -0.63871765 27.34584045 C-4.88155285 28.85703765 -7.35640639 31.7790669 -10.44145203 34.98109436 C-11.10348129 35.65115509 -11.76551056 36.32121582 -12.44760132 37.01158142 C-14.56328194 39.15623032 -16.6649162 41.31401916 -18.76567078 43.47328186 C-20.85816729 45.60855143 -22.95354228 47.74091212 -25.05160522 49.87071228 C-26.35441206 51.19487984 -27.65366857 52.52255397 -28.9486084 53.85441589 C-32.05961431 57.03232097 -35.22434544 60.05829781 -38.59989929 62.95545959 C-41.87050392 65.77461988 -44.7036755 68.75634791 -47.49223328 72.06312561 C-62.88028364 89.60399234 -62.88028364 89.60399234 -71.84770203 90.84828186 C-77.14093641 91.02360186 -82.2844918 90.48848771 -87.45317078 89.34828186 C-88.32597351 87.25990295 -88.32597351 87.25990295 -88.45317078 84.34828186 C-86.54042773 81.88499123 -84.72443985 79.89716805 -82.48832703 77.76234436 C-81.86220016 77.14233551 -81.2360733 76.52232666 -80.5909729 75.88352966 C-78.57949005 73.89901382 -76.54793042 71.93649232 -74.51567078 69.97328186 C-73.18037199 68.65951231 -71.84637178 67.34442151 -70.51371765 66.02796936 C-65.61220493 61.20934589 -60.72220385 56.4164469 -55.51542664 51.92591858 C-51.24686728 48.22243796 -47.26782631 44.27256573 -43.29692078 40.25453186 C-42.55035217 39.50417664 -41.80378357 38.75382141 -41.03459167 37.98072815 C-38.67165053 35.60568266 -36.31199708 33.22741369 -33.95317078 30.84828186 C-30.84156431 27.70988969 -27.72653323 24.57495441 -24.60942078 21.44203186 C-23.91022522 20.73453796 -23.21102966 20.02704407 -22.49064636 19.29811096 C-18.54147664 15.32959529 -14.49534988 11.555741 -10.22770691 7.93067932 C-8.45137211 6.34667795 -6.87315359 4.66387786 -5.26567078 2.91078186 C-2.45317078 0.34828186 -2.45317078 0.34828186 0 0 Z " fill="#0F0F0F" transform="translate(188.4531707763672,154.65171813964844)"/>
<path d="M0 0 C0.76183594 0.43441406 1.52367187 0.86882812 2.30859375 1.31640625 C3.16324219 1.80238281 4.01789063 2.28835937 4.8984375 2.7890625 C13.97585614 8.56311977 19.97826707 16.57317121 24.30859375 26.31640625 C19.19398741 25.70142352 15.03670018 23.33876486 10.49609375 21.06640625 C1.97295979 16.89723883 -6.5539926 13.82446876 -15.69140625 11.31640625 C-15.69140625 11.97640625 -15.69140625 12.63640625 -15.69140625 13.31640625 C-14.62986328 13.70119141 -14.62986328 13.70119141 -13.546875 14.09375 C-10.45181774 15.41899339 -7.83030515 17.0500599 -5.00390625 18.87890625 C3.09351751 24.01462169 11.69039458 28.13788544 20.30859375 32.31640625 C20.30859375 32.97640625 20.30859375 33.63640625 20.30859375 34.31640625 C6.99259269 36.75734236 -5.60667643 35.701516 -17.06640625 28.00390625 C-18.63184879 26.80516673 -20.17560815 25.57733564 -21.69140625 24.31640625 C-22.32691406 23.79304688 -22.96242188 23.2696875 -23.6171875 22.73046875 C-30.30382363 16.65170864 -35.64376868 8.35563807 -36.69140625 -0.68359375 C-26.42222973 -4.98391892 -10.08285916 -4.63004892 0 0 Z " fill="#8095AC" transform="translate(141.69140625,133.68359375)"/>
<path d="M0 0 C0.79067871 0.00386719 1.58135742 0.00773438 2.39599609 0.01171875 C7.88289632 0.09312341 12.84186174 0.6846257 18.125 2.25 C16.96021479 12.07787517 10.87060034 20.53432331 3.78125 27.2109375 C-8.69466417 36.78803632 -21.53089672 39.00491584 -36.875 38.25 C-37.535 37.92 -38.195 37.59 -38.875 37.25 C-38.875 36.59 -38.875 35.93 -38.875 35.25 C-37.8334375 34.78851563 -36.791875 34.32703125 -35.71875 33.8515625 C-24.08412332 28.59342217 -13.49002041 22.32668027 -2.875 15.25 C-11.4902087 16.30860779 -18.54249866 19.03158346 -26.3125 22.8125 C-28.41399427 23.81667486 -30.51680573 24.81809905 -32.62109375 25.81640625 C-33.53560303 26.25927979 -34.4501123 26.70215332 -35.39233398 27.15844727 C-37.56462474 28.11353744 -39.55907413 28.76800871 -41.875 29.25 C-41.04880117 23.21239314 -37.74175403 19.76121303 -33.875 15.25 C-33.33617187 14.61449219 -32.79734375 13.97898438 -32.2421875 13.32421875 C-23.70797395 4.02728563 -12.41740824 -0.14673451 0 0 Z " fill="#8095AC" transform="translate(424.875,201.75)"/>
<path d="M0 0 C4.23513286 0.83041821 7.03234656 2.33789622 9.9296875 5.515625 C11.45737437 9.64936595 11.17560899 13.16975503 9.9921875 17.390625 C8.09155068 19.84305961 6.73363895 21.01989927 3.9921875 22.390625 C5.36844849 26.40471954 7.33523447 29.11371626 9.9921875 32.390625 C9.9921875 33.050625 9.9921875 33.710625 9.9921875 34.390625 C7.69140625 34.69921875 7.69140625 34.69921875 4.9921875 34.390625 C3.32421875 32.23828125 3.32421875 32.23828125 1.8046875 29.453125 C-0.65507949 25.50686591 -0.65507949 25.50686591 -4.6796875 23.50390625 C-7.74073506 23.18765575 -7.74073506 23.18765575 -12.0078125 23.390625 C-12.0078125 27.020625 -12.0078125 30.650625 -12.0078125 34.390625 C-13.3278125 34.390625 -14.6478125 34.390625 -16.0078125 34.390625 C-16.0078125 23.500625 -16.0078125 12.610625 -16.0078125 1.390625 C-14.6878125 1.390625 -13.3678125 1.390625 -12.0078125 1.390625 C-11.6778125 3.040625 -11.3478125 4.690625 -11.0078125 6.390625 C-10.3478125 5.400625 -9.6878125 4.410625 -9.0078125 3.390625 C-6.36657476 0.22562907 -4.21415208 -0.34985413 0 0 Z " fill="#E8E9E0" transform="translate(334.0078125,269.609375)"/>
<path d="M0 0 C3 1 3 1 4.16796875 2.93359375 C7.48917188 11.09026503 8.39991143 17.78638045 5.375 26.1875 C3.30215778 30.90731699 0.54948094 34.28917902 -3 38 C-4.26346915 34.20959256 -3.42375351 31.4586909 -2.5625 27.6875 C-1.51709214 23.07218406 -0.81559504 18.75764799 -1 14 C-3.99671237 21.13502944 -5.4996986 28.42400993 -7 36 C-7.66 36 -8.32 36 -9 36 C-12.2428235 28.83876478 -13.63390188 21.98158527 -11.12109375 14.3203125 C-8.434308 8.48564245 -4.82325025 4.1977567 0 0 Z " fill="#8397AE" transform="translate(381,188)"/>
<path d="M0 0 C5.52701128 2.41730823 9.41270836 6.85871654 12.1171875 12.2109375 C15.26668498 20.75957352 14.5945533 27.76248203 11 36 C10.34 36 9.68 36 9 36 C8.73445312 34.74703125 8.46890625 33.4940625 8.1953125 32.203125 C7.83882441 30.55202226 7.48203794 28.90098393 7.125 27.25 C6.95097656 26.425 6.77695313 25.6 6.59765625 24.75 C6.42363281 23.95078125 6.24960938 23.1515625 6.0703125 22.328125 C5.91320801 21.5949707 5.75610352 20.86181641 5.59423828 20.10644531 C4.97058111 17.89571644 4.08856601 16.01763516 3 14 C3.58006237 21.75451806 4.62440584 29.34742277 6 37 C2.19390191 35.5304003 0.8268074 33.61508531 -1.1875 30.125 C-1.69667969 29.26132813 -2.20585937 28.39765625 -2.73046875 27.5078125 C-5.53996772 21.95797147 -5.75605206 16.12080445 -5 10 C-3.6538329 6.45572089 -1.96617735 3.23717057 0 0 Z " fill="#8397AE" transform="translate(165,117)"/>
<path d="M0 0 C1.98 0 3.96 0 6 0 C7.71560791 4.21487449 9.42440843 8.43241971 11.12695312 12.65258789 C11.70711873 14.08791372 12.28913894 15.52249135 12.87304688 16.95629883 C13.71192052 19.01710321 14.54409239 21.08050434 15.375 23.14453125 C15.63748535 23.78526077 15.8999707 24.4259903 16.17041016 25.08613586 C17.29601297 27.89908129 18 29.93718295 18 33 C16.35 33 14.7 33 13 33 C12.32942113 31.2097939 11.6636531 29.41778511 11 27.625 C10.62875 26.62726563 10.2575 25.62953125 9.875 24.6015625 C9 22 9 22 9 20 C4.38 20.33 -0.24 20.66 -5 21 C-5.99 23.475 -5.99 23.475 -7 26 C-8.22268799 22.33193602 -7.63313577 21.2553473 -6.34765625 17.67578125 C-5.98349609 16.64775391 -5.61933594 15.61972656 -5.24414062 14.56054688 C-4.85419922 13.48869141 -4.46425781 12.41683594 -4.0625 11.3125 C-3.48338867 9.68731445 -3.48338867 9.68731445 -2.89257812 8.02929688 C-1.9364747 5.34984654 -0.97200143 2.6737156 0 0 Z " fill="#1B1B1B" transform="translate(217,337)"/>
<path d="M0 0 C1.98 0 3.96 0 6 0 C9.0407934 7.14656513 11.96314285 14.33773367 14.8125 21.5625 C15.12646729 22.34802246 15.44043457 23.13354492 15.76391602 23.94287109 C16.19982056 25.055896 16.19982056 25.055896 16.64453125 26.19140625 C16.90596924 26.85342041 17.16740723 27.51543457 17.43676758 28.19750977 C18 30 18 30 18 33 C15.64453125 32.80859375 15.64453125 32.80859375 13 32 C11.63671875 29.78515625 11.63671875 29.78515625 10.6875 27.0625 C10.36136719 26.16660156 10.03523438 25.27070313 9.69921875 24.34765625 C9 22 9 22 9 20 C4.05 20.33 -0.9 20.66 -6 21 C-4.55613874 13.78069368 -2.42211826 6.94889267 0 0 Z " fill="#1A1A19" transform="translate(308,337)"/>
<path d="M0 0 C3.97524509 2.28902432 6.50999398 5.20748796 8.5625 9.3125 C9.55286778 22.03491681 9.55286778 22.03491681 5.5625 27.3125 C-0.00387773 32.2335006 -4.76618433 33.65237209 -12.1328125 33.51953125 C-17.63587751 33.02518812 -21.22404564 30.84418388 -24.8125 26.8125 C-28.42942367 22.40256098 -28.78777146 18.44152437 -28.71484375 12.8828125 C-28.266448 8.72725754 -26.97803936 6.65531495 -24.4375 3.3125 C-17.27106842 -2.24514082 -8.46110208 -3.94427315 0 0 Z M-21.25 4.25 C-24.23517206 9.43477252 -24.00701154 15.50508655 -23.4375 21.3125 C-22.14018901 25.84938186 -20.48368712 28.56854472 -16.625 31.3125 C-11.71514837 32.85284561 -8.11506866 32.90458306 -3.25 31.1875 C0.94290349 28.39223101 2.98412539 25.04762382 4.5625 20.3125 C5.09726918 14.33748278 5.07530722 9.4000139 1.5625 4.3125 C-2.1174016 0.90859102 -4.70278618 -0.5565782 -9.75 -0.9375 C-14.63350462 -0.60641494 -17.8806042 0.64823207 -21.25 4.25 Z " fill="#313130" transform="translate(304.4375,271.6875)"/>
<path d="M0 0 C7.92 0 15.84 0 24 0 C24 0.33 24 0.66 24 1 C17.73 1 11.46 1 5 1 C5 5.62 5 10.24 5 15 C9.95 15 14.9 15 20 15 C20 15.33 20 15.66 20 16 C15.05 16 10.1 16 5 16 C5 21.28 5 26.56 5 32 C11.27 32 17.54 32 24 32 C24 32.33 24 32.66 24 33 C16.08 33 8.16 33 0 33 C0 22.11 0 11.22 0 0 Z " fill="#313130" transform="translate(271,337)"/>
<path d="M0 0 C7.92 0 15.84 0 24 0 C24 0.33 24 0.66 24 1 C17.73 1 11.46 1 5 1 C5 5.62 5 10.24 5 15 C9.95 15 14.9 15 20 15 C20 15.33 20 15.66 20 16 C15.05 16 10.1 16 5 16 C5 21.28 5 26.56 5 32 C11.27 32 17.54 32 24 32 C24 32.33 24 32.66 24 33 C16.08 33 8.16 33 0 33 C0 22.11 0 11.22 0 0 Z " fill="#313130" transform="translate(189,271)"/>
<path d="M0 0 C1.65 0 3.3 0 5 0 C6.27833161 3.121983 7.54622092 6.24811122 8.8125 9.375 C9.34713867 10.68017578 9.34713867 10.68017578 9.89257812 12.01171875 C12.27910096 17.92328908 14.27761674 23.86220259 16 30 C16.66 30 17.32 30 18 30 C18.2475 28.741875 18.495 27.48375 18.75 26.1875 C19.97833802 20.59767191 21.94687375 15.33214826 24 10 C25.1673418 13.5020254 24.79056598 14.29616038 23.56640625 17.66796875 C23.24736328 18.56064453 22.92832031 19.45332031 22.59960938 20.37304688 C22.25736328 21.30181641 21.91511719 22.23058594 21.5625 23.1875 C21.22412109 24.12787109 20.88574219 25.06824219 20.53710938 26.03710938 C19.69951191 28.36114742 18.85354717 30.68178235 18 33 C16.02 33 14.04 33 12 33 C10.2867268 28.62340717 8.57784507 24.24513541 6.87304688 19.86523438 C6.2922269 18.37485291 5.71020032 16.88494109 5.12695312 15.39550781 C4.28980472 13.25707769 3.45698106 11.11700743 2.625 8.9765625 C2.23127197 7.97491562 2.23127197 7.97491562 1.82958984 6.95303345 C0 2.22774341 0 2.22774341 0 0 Z " fill="#292928" transform="translate(244,271)"/>
<path d="M0 0 C0.97066406 -0.01417969 1.94132812 -0.02835937 2.94140625 -0.04296875 C5.4375 0.1875 5.4375 0.1875 7.4375 2.1875 C6.33341797 2.13529297 6.33341797 2.13529297 5.20703125 2.08203125 C-2.25310114 1.68681019 -2.25310114 1.68681019 -8.5625 5.1875 C-11.64481575 9.33242338 -11.99484839 12.50945197 -12 17.625 C-12.01933594 18.90246094 -12.03867188 20.17992187 -12.05859375 21.49609375 C-11.48257403 25.7822247 -10.32445328 27.89160144 -7.5625 31.1875 C-4.296803 33.58874779 -1.28160064 33.3987848 2.6875 33.3125 C4.30398437 33.28542969 4.30398437 33.28542969 5.953125 33.2578125 C6.77296875 33.23460937 7.5928125 33.21140625 8.4375 33.1875 C3.95701047 36.17449302 -0.30971575 35.78257066 -5.5625 35.1875 C-11.13580197 33.30256241 -14.95595954 29.40058092 -17.5625 24.1875 C-18.05578755 18.33274289 -18.41994288 12.99765719 -15.875 7.625 C-10.85683874 2.33558678 -7.33651768 0.04884499 0 0 Z " fill="#292928" transform="translate(155.5625,335.8125)"/>
<path d="M0 0 C1.65 0 3.3 0 5 0 C5 10.89 5 21.78 5 33 C3.35 33 1.7 33 0 33 C-1.31547495 21.90953423 -0.72009071 11.11155359 0 0 Z " fill="#242423" transform="translate(357,337)"/>
<path d="M0 0 C1.65 0 3.3 0 5 0 C5.01981934 0.79696289 5.03963867 1.59392578 5.06005859 2.41503906 C5.15533248 6.02702472 5.26500307 9.63843399 5.375 13.25 C5.4059375 14.50425781 5.436875 15.75851562 5.46875 17.05078125 C5.50742187 18.25605469 5.54609375 19.46132813 5.5859375 20.703125 C5.6173584 21.81333008 5.6487793 22.92353516 5.68115234 24.06738281 C5.99089737 26.9162781 6.43462483 28.6230776 8 31 C10.40545638 32.20272819 11.94996953 32.10071472 14.625 32.0625 C15.85089844 32.04896484 15.85089844 32.04896484 17.1015625 32.03515625 C17.72804688 32.02355469 18.35453125 32.01195312 19 32 C16.6058839 34.3941161 15.96213689 34.29598923 12.6875 34.3125 C8.64351657 34.19565939 6.08497944 33.81277537 3 31 C-0.62205993 24.64612138 -0.3536971 18.74306718 -0.1875 11.5625 C-0.17396484 10.44939453 -0.16042969 9.33628906 -0.14648438 8.18945312 C-0.11132997 5.45912788 -0.06212106 2.72982256 0 0 Z " fill="#282827" transform="translate(330,337)"/>
<path d="M0 0 C1.65 0 3.3 0 5 0 C5 10.89 5 21.78 5 33 C3.35 33 1.7 33 0 33 C0 22.11 0 11.22 0 0 Z " fill="#252524" transform="translate(235,271)"/>
<path d="M0 0 C1.65 0 3.3 0 5 0 C5 10.89 5 21.78 5 33 C3.35 33 1.7 33 0 33 C0 22.11 0 11.22 0 0 Z " fill="#242423" transform="translate(136,271)"/>
<path d="M0 0 C3.64413322 0.20245185 4.8197988 0.81031452 7.375 3.5 C9.46846739 8.00900668 9.43013775 11.26885248 8 16 C6.09936318 18.45243461 4.74145145 19.62927427 2 21 C3.37626099 25.01409454 5.34304697 27.72309126 8 31 C8 31.66 8 32.32 8 33 C5.73828125 33.3046875 5.73828125 33.3046875 3 33 C0.98046875 30.8828125 0.98046875 30.8828125 -0.8125 28.125 C-1.41707031 27.22007812 -2.02164062 26.31515625 -2.64453125 25.3828125 C-4 23 -4 23 -4 21 C-3.030625 20.360625 -2.06125 19.72125 -1.0625 19.0625 C2.24255225 17.28938993 2.24255225 17.28938993 3 14 C3.14252401 12.35823305 3.22026755 10.71017345 3.25 9.0625 C3.27578125 8.20785156 3.3015625 7.35320312 3.328125 6.47265625 C2.93876562 3.53855522 1.93350171 2.19299799 0 0 Z " fill="#242423" transform="translate(336,271)"/>
<path d="M0 0 C2.30981445 -0.27124023 2.30981445 -0.27124023 5 0 C6.63745117 1.82006836 6.63745117 1.82006836 8.04296875 4.33984375 C8.55923828 5.23767578 9.07550781 6.13550781 9.60742188 7.06054688 C10.12884766 8.00994141 10.65027344 8.95933594 11.1875 9.9375 C12.23924904 11.80317816 13.29503738 13.66658682 14.35546875 15.52734375 C14.81590576 16.35999756 15.27634277 17.19265137 15.75073242 18.05053711 C16.85591802 20.14119852 16.85591802 20.14119852 19 21 C19.33 19.35 19.66 17.7 20 16 C21.2720853 19.8162559 20.47128403 21.35983836 19.1875 25.125 C18.83042969 26.20007813 18.47335937 27.27515625 18.10546875 28.3828125 C17 31 17 31 15 32 C15.99 28.535 15.99 28.535 17 25 C14.36 25 11.72 25 9 25 C10.32 24.67 11.64 24.34 13 24 C11.39620082 21.27061722 9.7918946 18.54153281 8.1875 15.8125 C7.73568359 15.04357422 7.28386719 14.27464844 6.81835938 13.48242188 C6.37685547 12.73154297 5.93535156 11.98066406 5.48046875 11.20703125 C5.0529834 10.47822754 4.62549805 9.74942383 4.18505859 8.99853516 C3.20391147 7.34388531 2.19356192 5.70659074 1.17578125 4.07421875 C0 2 0 2 0 0 Z " fill="#292928" transform="translate(349,271)"/>
<path d="M0 0 C1.32 0 2.64 0 4 0 C4.33 1.65 4.66 3.3 5 5 C6.32 3.68 7.64 2.36 9 1 C8.52449439 2.48034764 8.04448784 3.95925021 7.5625 5.4375 C7.29566406 6.26121094 7.02882813 7.08492188 6.75390625 7.93359375 C6 10 6 10 5 11 C4.84285346 12.63256758 4.74914586 14.27135338 4.68359375 15.91015625 C4.64169922 16.89951172 4.59980469 17.88886719 4.55664062 18.90820312 C4.51732422 19.94912109 4.47800781 20.99003906 4.4375 22.0625 C4.37272461 23.62967773 4.37272461 23.62967773 4.30664062 25.22851562 C4.20018775 27.81886884 4.0981724 30.40932186 4 33 C2.68 33 1.36 33 0 33 C0 22.11 0 11.22 0 0 Z " fill="#171716" transform="translate(318,271)"/>
<path d="M0 0 C1.32 0 2.64 0 4 0 C4 10.89 4 21.78 4 33 C2.68 33 1.36 33 0 33 C0 22.11 0 11.22 0 0 Z " fill="#0D0D0D" transform="translate(251,337)"/>
<path d="M0 0 C1.32 0 2.64 0 4 0 C4 10.89 4 21.78 4 33 C2.68 33 1.36 33 0 33 C0 22.11 0 11.22 0 0 Z " fill="#0D0D0D" transform="translate(198,337)"/>
<path d="M0 0 C1.32 0 2.64 0 4 0 C4 10.89 4 21.78 4 33 C2.68 33 1.36 33 0 33 C0 22.11 0 11.22 0 0 Z " fill="#0D0D0D" transform="translate(175,337)"/>
<path d="M0 0 C1.32 0 2.64 0 4 0 C4 10.89 4 21.78 4 33 C2.68 33 1.36 33 0 33 C0 22.11 0 11.22 0 0 Z " fill="#0D0D0D" transform="translate(180,271)"/>
<path d="M0 0 C1.32 0 2.64 0 4 0 C4 10.89 4 21.78 4 33 C2.68 33 1.36 33 0 33 C0 22.11 0 11.22 0 0 Z " fill="#0D0D0D" transform="translate(157,271)"/>
<path d="M0 0 C3.17033042 0.33967826 3.99882607 0.99869191 6.1875 3.4375 C9.90979773 8.70005886 9.4538237 13.69597622 9 20 C7.40218678 24.70934424 5.23066745 27.35583284 1 30 C0.01 29.67 -0.98 29.34 -2 29 C-1.38125 28.278125 -0.7625 27.55625 -0.125 26.8125 C4.16236257 21.13804954 4.76083185 15.98175106 4 9 C2.69280737 5.63121229 2.69280737 5.63121229 1 3 C0.67 2.01 0.34 1.02 0 0 Z " fill="#1A1A1A" transform="translate(304,273)"/>
<path d="M0 0 C0.8146875 0.00257813 1.629375 0.00515625 2.46875 0.0078125 C3.2834375 0.00523437 4.098125 0.00265625 4.9375 0 C6.96875 0.1328125 6.96875 0.1328125 7.96875 1.1328125 C8.0666557 2.63019374 8.09849864 4.13224142 8.09375 5.6328125 C8.09632813 6.4475 8.09890625 7.2621875 8.1015625 8.1015625 C7.96875 10.1328125 7.96875 10.1328125 6.96875 11.1328125 C5.28266034 11.20486761 3.59374341 11.21667318 1.90625 11.1953125 C0.98714844 11.18628906 0.06804687 11.17726562 -0.87890625 11.16796875 C-1.58917969 11.15636719 -2.29945313 11.14476562 -3.03125 11.1328125 C-3.05813151 9.48706684 -3.07759123 7.84119837 -3.09375 6.1953125 C-3.10535156 5.27878906 -3.11695313 4.36226562 -3.12890625 3.41796875 C-3.00402422 0.49572926 -2.91184986 0.19039018 0 0 Z " fill="#1F1F1F" transform="translate(298.03125,202.8671875)"/>
<path d="M0 0 C0.8146875 0.00257813 1.629375 0.00515625 2.46875 0.0078125 C3.2834375 0.00523437 4.098125 0.00265625 4.9375 0 C6.96875 0.1328125 6.96875 0.1328125 7.96875 1.1328125 C8.0666557 2.63019374 8.09849864 4.13224142 8.09375 5.6328125 C8.09632813 6.4475 8.09890625 7.2621875 8.1015625 8.1015625 C7.96875 10.1328125 7.96875 10.1328125 6.96875 11.1328125 C5.47136876 11.2307182 3.96932108 11.26256114 2.46875 11.2578125 C1.6540625 11.26039063 0.839375 11.26296875 0 11.265625 C-2.03125 11.1328125 -2.03125 11.1328125 -3.03125 10.1328125 C-3.1291557 8.63543126 -3.16099864 7.13338358 -3.15625 5.6328125 C-3.15882813 4.818125 -3.16140625 4.0034375 -3.1640625 3.1640625 C-2.98414019 0.4123095 -2.751753 0.17992231 0 0 Z " fill="#1F1F1E" transform="translate(298.03125,216.8671875)"/>
<path d="M0 0 C0.8146875 0.00257813 1.629375 0.00515625 2.46875 0.0078125 C3.2834375 0.00523437 4.098125 0.00265625 4.9375 0 C6.96875 0.1328125 6.96875 0.1328125 7.96875 1.1328125 C8.0666557 2.63019374 8.09849864 4.13224142 8.09375 5.6328125 C8.09632813 6.4475 8.09890625 7.2621875 8.1015625 8.1015625 C7.96875 10.1328125 7.96875 10.1328125 6.96875 11.1328125 C5.47136876 11.2307182 3.96932108 11.26256114 2.46875 11.2578125 C1.6540625 11.26039063 0.839375 11.26296875 0 11.265625 C-2.03125 11.1328125 -2.03125 11.1328125 -3.03125 10.1328125 C-3.1291557 8.63543126 -3.16099864 7.13338358 -3.15625 5.6328125 C-3.15882813 4.818125 -3.16140625 4.0034375 -3.1640625 3.1640625 C-2.98414019 0.4123095 -2.751753 0.17992231 0 0 Z " fill="#1F1F1E" transform="translate(193.03125,216.8671875)"/>
<path d="M0 0 C0.8146875 0.00257813 1.629375 0.00515625 2.46875 0.0078125 C3.2834375 0.00523437 4.098125 0.00265625 4.9375 0 C6.96875 0.1328125 6.96875 0.1328125 7.96875 1.1328125 C8.0666557 2.63019374 8.09849864 4.13224142 8.09375 5.6328125 C8.09632813 6.4475 8.09890625 7.2621875 8.1015625 8.1015625 C7.96875 10.1328125 7.96875 10.1328125 6.96875 11.1328125 C5.47136876 11.2307182 3.96932108 11.26256114 2.46875 11.2578125 C1.6540625 11.26039063 0.839375 11.26296875 0 11.265625 C-2.03125 11.1328125 -2.03125 11.1328125 -3.03125 10.1328125 C-3.1291557 8.63543126 -3.16099864 7.13338358 -3.15625 5.6328125 C-3.15882813 4.818125 -3.16140625 4.0034375 -3.1640625 3.1640625 C-2.98414019 0.4123095 -2.751753 0.17992231 0 0 Z " fill="#1E1E1E" transform="translate(193.03125,202.8671875)"/>
<path d="M0 0 C3.3 0 6.6 0 10 0 C10 3.63 10 7.26 10 11 C6.7 11 3.4 11 0 11 C0 7.37 0 3.74 0 0 Z " fill="#191919" transform="translate(176,217)"/>
<path d="M0 0 C3.3 0 6.6 0 10 0 C10 3.63 10 7.26 10 11 C6.7 11 3.4 11 0 11 C0 7.37 0 3.74 0 0 Z " fill="#191918" transform="translate(281,203)"/>
<path d="M0 0 C3.3 0 6.6 0 10 0 C10 3.63 10 7.26 10 11 C6.7 11 3.4 11 0 11 C0 7.37 0 3.74 0 0 Z " fill="#181818" transform="translate(176,203)"/>
<path d="M0 0 C3.3 0 6.6 0 10 0 C10.09765625 7.71484375 10.09765625 7.71484375 10 10 C9 11 9 11 6.93359375 11.09765625 C3.46679688 11.04882812 3.46679688 11.04882812 0 11 C0 7.37 0 3.74 0 0 Z " fill="#181818" transform="translate(281,217)"/>
<path d="M0 0 C3 1 3 1 4.16796875 3.14453125 C4.50441406 4.02496094 4.84085938 4.90539062 5.1875 5.8125 C5.53167969 6.68519531 5.87585938 7.55789063 6.23046875 8.45703125 C7 11 7 11 7 15 C3.37 15 -0.26 15 -4 15 C-2.91266548 9.87399439 -1.77362508 4.94081272 0 0 Z " fill="#F0F1E8" transform="translate(217,340)"/>
<path d="M0 0 C2.90026063 1.45013031 3.04954396 3.30520627 4.125 6.3125 C4.47820312 7.27800781 4.83140625 8.24351562 5.1953125 9.23828125 C6 12 6 12 6 16 C2.37 16 -1.26 16 -5 16 C-2.05357143 4.88392857 -2.05357143 4.88392857 0 0 Z " fill="#F1F2E9" transform="translate(309,339)"/>
<path d="M0 0 C3.3 0 6.6 0 10 0 C9.01 2.97 8.02 5.94 7 9 C4.2351335 9.22417836 2.53722513 9.32233508 0.125 7.875 C-1.55290631 5.07848948 -0.74875648 3.06309468 0 0 Z " fill="#D1D2CB" transform="translate(356,296)"/>
<path d="M0 0 C1.44526736 1.73548169 2.8087222 3.53975963 4.125 5.375 C4.84945313 6.37273437 5.57390625 7.37046875 6.3203125 8.3984375 C8 11 8 11 8 13 C5.73828125 13.3046875 5.73828125 13.3046875 3 13 C0.98046875 10.8828125 0.98046875 10.8828125 -0.8125 8.125 C-1.41707031 7.22007812 -2.02164062 6.31515625 -2.64453125 5.3828125 C-4 3 -4 3 -4 1 C-2 0 -2 0 0 0 Z " fill="#1A1A19" transform="translate(336,291)"/>
<path d="M0 0 C0.99 0.33 1.98 0.66 3 1 C2.34 1 1.68 1 1 1 C0.87882813 1.58007812 0.75765625 2.16015625 0.6328125 2.7578125 C-0.33735474 7.28028442 -1.43397783 11.63750966 -3 16 C2.94 15.505 2.94 15.505 9 15 C9 15.99 9 16.98 9 18 C2.565 18.495 2.565 18.495 -4 19 C-4.99 21.475 -4.99 21.475 -6 24 C-7.17791932 20.46624203 -6.75415072 19.55148893 -5.56640625 16.11328125 C-5.0878418 14.7065918 -5.0878418 14.7065918 -4.59960938 13.27148438 C-4.25736328 12.29501953 -3.91511719 11.31855469 -3.5625 10.3125 C-3.22412109 9.32443359 -2.88574219 8.33636719 -2.53710938 7.31835938 C-1.69940026 4.87602435 -0.85342917 2.43687729 0 0 Z " fill="#858581" transform="translate(216,339)"/>
<path d="M0 0 C0.66 0.66 1.32 1.32 2 2 C-0.97 9.92 -0.97 9.92 -4 18 C-0.37 18 3.26 18 7 18 C7.33 17.34 7.66 16.68 8 16 C8.33 17.32 8.66 18.64 9 20 C4.05 20.33 -0.9 20.66 -6 21 C-4.55613874 13.78069368 -2.42211826 6.94889267 0 0 Z " fill="#858581" transform="translate(308,337)"/>
<path d="M0 0 C0.95261719 -0.00515625 1.90523437 -0.0103125 2.88671875 -0.015625 C5.3125 0.25 5.3125 0.25 7.3125 2.25 C6.57644531 2.22679687 5.84039062 2.20359375 5.08203125 2.1796875 C3.61830078 2.15261719 3.61830078 2.15261719 2.125 2.125 C0.68060547 2.09019531 0.68060547 2.09019531 -0.79296875 2.0546875 C-3.81562778 2.2586456 -5.95519985 2.98125368 -8.6875 4.25 C-9.3475 3.59 -10.0075 2.93 -10.6875 2.25 C-6.98620703 0.55104585 -4.06583604 -0.02218737 0 0 Z " fill="#5D5E5B" transform="translate(155.6875,335.75)"/>
</svg>
